<svg width="100" height="29" viewBox="0 0 100 29" fill="none" xmlns="http://www.w3.org/2000/svg">
<line x1="1.61035" y1="27.7681" x2="98.2288" y2="27.7681" stroke="currentColor"/>
<line x1="55.2168" y1="28.2681" x2="55.2168" y2="13.7754" stroke="currentColor"/>
<path d="M54.9817 14.2754C54.9517 14.2975 54.9146 14.3106 54.8744 14.3106H54.4476C54.4539 14.2902 54.4729 14.2754 54.4953 14.2754H54.9817Z" stroke="currentColor" stroke-width="0.517599"/>
<path d="M56.2907 27.7681C56.3208 27.746 56.3579 27.7329 56.3981 27.7329H56.8249C56.8186 27.7533 56.7996 27.7681 56.7772 27.7681H56.2907Z" stroke="currentColor" stroke-width="0.517599"/>
<line x1="66.0059" y1="28.2681" x2="66.0059" y2="12.8092" stroke="currentColor"/>
<path d="M65.8273 13.3092C65.7984 13.3707 65.7358 13.4134 65.6632 13.4134H65.2518C65.2421 13.4134 65.2342 13.4055 65.2342 13.3958C65.2342 13.3479 65.273 13.3092 65.3208 13.3092H65.8273Z" stroke="currentColor" stroke-width="0.552105"/>
<path d="M67.023 27.7681C67.052 27.7065 67.1146 27.6639 67.1871 27.6639H67.5986C67.6083 27.6639 67.6162 27.6718 67.6162 27.6815C67.6162 27.7293 67.5774 27.7681 67.5296 27.7681H67.023Z" stroke="currentColor" stroke-width="0.552105"/>
<line x1="76.7949" y1="28.2681" x2="76.7949" y2="9.91061" stroke="currentColor"/>
<path d="M76.6338 10.5406C76.6338 10.6407 76.5526 10.7219 76.4525 10.7219H76.1381C76.0748 10.7219 76.0235 10.6705 76.0235 10.6072C76.0235 10.4986 76.1115 10.4106 76.2201 10.4106H76.6338V10.5406Z" stroke="currentColor" stroke-width="0.655625"/>
<path d="M77.7949 27.6381C77.7949 27.538 77.8761 27.4569 77.9762 27.4569H78.2906C78.3539 27.4569 78.4052 27.5082 78.4052 27.5715C78.4052 27.6801 78.3172 27.7681 78.2086 27.7681H77.7949V27.6381Z" stroke="currentColor" stroke-width="0.655625"/>
<line x1="87.584" y1="28.2681" x2="87.584" y2="5.72382" stroke="currentColor"/>
<path d="M87.4229 6.65285C87.4229 6.75297 87.3417 6.83413 87.2416 6.83413H87.0674C86.9266 6.83413 86.8125 6.72004 86.8125 6.5793C86.8125 6.38297 86.9717 6.22382 87.168 6.22382H87.4229V6.65285Z" stroke="currentColor" stroke-width="0.805154"/>
<path d="M88.584 27.3391C88.584 27.239 88.6651 27.1578 88.7653 27.1578H88.9395C89.0802 27.1578 89.1943 27.2719 89.1943 27.4126C89.1943 27.609 89.0351 27.7681 88.8388 27.7681H88.584V27.3391Z" stroke="currentColor" stroke-width="0.805154"/>
<line x1="97.8896" y1="28.2681" x2="97.8896" y2="5.72384" stroke="currentColor"/>
<path d="M97.7285 6.65285C97.7285 6.75297 97.6474 6.83413 97.5472 6.83413H97.373C97.2323 6.83413 97.1182 6.72004 97.1182 6.5793C97.1182 6.38297 97.2774 6.22382 97.4737 6.22382H97.7285V6.65285Z" stroke="currentColor" stroke-width="0.805154"/>
<path d="M98.8896 27.3391C98.8896 27.239 98.9708 27.1578 99.0709 27.1578H99.2451C99.3859 27.1578 99.5 27.2719 99.5 27.4127C99.5 27.609 99.3408 27.7681 99.1445 27.7681H98.8896V27.3391Z" stroke="currentColor" stroke-width="0.805154"/>
<line x1="1.27148" y1="28.2681" x2="1.27148" y2="5.72382" stroke="currentColor"/>
<path d="M1.11035 6.65284C1.11035 6.75296 1.02919 6.83413 0.929068 6.83413H0.754876C0.614136 6.83413 0.500044 6.72003 0.500044 6.57929C0.500044 6.38297 0.659196 6.22382 0.855519 6.22382H1.11035V6.65284Z" stroke="currentColor" stroke-width="0.805154"/>
<path d="M2.27148 27.3391C2.27148 27.239 2.35265 27.1578 2.45277 27.1578H2.62696C2.7677 27.1578 2.88179 27.2719 2.88179 27.4126C2.88179 27.609 2.72264 27.7681 2.52632 27.7681H2.27148V27.3391Z" stroke="currentColor" stroke-width="0.805154"/>
<line x1="12.0603" y1="28.2681" x2="12.0603" y2="5.88483" stroke="currentColor"/>
<path d="M11.8992 6.80235C11.8992 6.90247 11.818 6.98363 11.7179 6.98363H11.5383C11.4005 6.98363 11.2889 6.87195 11.2889 6.73419C11.2889 6.54124 11.4453 6.38483 11.6382 6.38483H11.8992V6.80235Z" stroke="currentColor" stroke-width="0.799403"/>
<path d="M13.0603 27.3506C13.0603 27.2505 13.1415 27.1693 13.2416 27.1693H13.4212C13.5589 27.1693 13.6706 27.281 13.6706 27.4187C13.6706 27.6117 13.5142 27.7681 13.3212 27.7681H13.0603V27.3506Z" stroke="currentColor" stroke-width="0.799403"/>
<line x1="33.6387" y1="28.2681" x2="33.6387" y2="12.8092" stroke="currentColor"/>
<path d="M33.4601 13.3092C33.4312 13.3707 33.3686 13.4134 33.296 13.4134H32.8846C32.8749 13.4134 32.867 13.4055 32.867 13.3958C32.867 13.3479 32.9058 13.3092 32.9536 13.3092H33.4601Z" stroke="currentColor" stroke-width="0.552105"/>
<path d="M34.6558 27.7681C34.6848 27.7065 34.7474 27.6639 34.82 27.6639H35.2314C35.2411 27.6639 35.249 27.6718 35.249 27.6815C35.249 27.7293 35.2102 27.7681 35.1624 27.7681H34.6558Z" stroke="currentColor" stroke-width="0.552105"/>
<line x1="22.8496" y1="28.2681" x2="22.8496" y2="9.91059" stroke="currentColor"/>
<path d="M22.6885 10.5406C22.6885 10.6407 22.6073 10.7219 22.5072 10.7219H22.1928C22.1295 10.7219 22.0782 10.6705 22.0782 10.6072C22.0782 10.4986 22.1662 10.4106 22.2748 10.4106H22.6885V10.5406Z" stroke="currentColor" stroke-width="0.655625"/>
<path d="M23.8496 27.6381C23.8496 27.538 23.9308 27.4569 24.0309 27.4569H24.3453C24.4086 27.4569 24.4599 27.5082 24.4599 27.5715C24.4599 27.6801 24.3719 27.7681 24.2633 27.7681H23.8496V27.6381Z" stroke="currentColor" stroke-width="0.655625"/>
<line x1="44.4277" y1="28.2681" x2="44.4277" y2="13.7753" stroke="currentColor"/>
<path d="M44.1927 14.2753C44.1626 14.2975 44.1255 14.3105 44.0853 14.3105H43.6585C43.6648 14.2902 43.6838 14.2753 43.7062 14.2753H44.1927Z" stroke="currentColor" stroke-width="0.517599"/>
<path d="M45.5017 27.7681C45.5317 27.746 45.5688 27.7329 45.609 27.7329H46.0358C46.0295 27.7533 46.0105 27.7681 45.9881 27.7681H45.5017Z" stroke="currentColor" stroke-width="0.517599"/>
<path d="M6.68262 3.1473C13.5264 7.09255 29.2269 13.7753 44.8469 13.7753" stroke="currentColor"/>
<path d="M44.8474 13.7754C49.0342 13.9364 51.1276 14.0169 55.6365 13.7754" stroke="currentColor"/>
<path d="M93.3975 2.58371C86.5537 6.52896 71.1752 13.7753 55.5552 13.7753" stroke="currentColor"/>
<path d="M1.69092 5.80433C2.7214 5.42043 5.81661 3.90187 6.68287 3.0668" stroke="currentColor"/>
<path d="M98.3093 5.80432C97.2788 5.41107 94.1031 3.43914 93.2369 2.58371" stroke="currentColor"/>
<line x1="6.26318" y1="28.2681" x2="6.26318" y2="0.731838" stroke="currentColor" stroke-dasharray="2 2"/>
<line x1="92.8975" y1="28.2682" x2="92.8975" y2="0.731895" stroke="currentColor" stroke-dasharray="2 2"/>
</svg>
